<svg width="34" height="33" viewBox="0 0 34 33" fill="none" xmlns="http://www.w3.org/2000/svg">
<ellipse cx="16.6187" cy="16.21" rx="16.6187" ry="16.21" fill="#ED1631"/>
<path d="M25.884 6.77177C25.0023 5.89009 23.851 5.44557 22.6912 5.4213C21.4707 5.39459 20.2429 5.83663 19.3199 6.76083L11.098 14.9827C9.89811 16.1875 9.23742 17.7857 9.23742 19.4835L9.23742 22.2038C9.23742 22.8754 9.78028 23.4183 10.4519 23.4183L13.1722 23.4183C14.87 23.4183 16.4683 22.7576 17.6742 21.5565L25.8851 13.3455C27.6947 11.5349 27.6947 8.58375 25.884 6.77177ZM15.9583 19.8381C15.2138 20.5802 14.2228 20.9894 13.1723 20.9894L11.6663 20.9894L11.6663 19.4835C11.6663 18.433 12.0756 17.442 12.8164 16.6987L18.2365 11.2786L21.3771 14.4192L15.9583 19.8381ZM24.1668 11.6296L23.0944 12.702L19.9538 9.56141L21.0261 8.48907C21.8933 7.62195 23.302 7.62439 24.1667 8.48907C25.0314 9.35492 25.0314 10.7637 24.1668 11.6296Z" fill="white" stroke="#EC1630" stroke-width="0.5"/>
</svg>
