<svg width="35" height="34" viewBox="0 0 35 34" fill="none" xmlns="http://www.w3.org/2000/svg">
<circle cx="17.5" cy="17" r="17" fill="#ED1631"/>
<path d="M12.9999 13.25H16.5356V6.57143C16.5356 5.704 17.2381 5 18.1071 5C18.9761 5 19.6785 5.704 19.6785 6.57143V13.25H23.2142C24.2655 13.25 24.7888 14.5229 24.0471 15.2614L18.9399 20.3686C18.7105 20.5996 18.4088 20.7143 18.1071 20.7143C17.8053 20.7143 17.5036 20.5996 17.2742 20.3686L12.1671 15.2614C11.4253 14.5229 11.9486 13.25 12.9999 13.25Z" fill="white"/>
<path d="M25.9642 26.9999H10.2499C9.3809 26.9999 8.67847 26.2959 8.67847 25.4284C8.67847 24.561 9.3809 23.857 10.2499 23.857H25.9642C26.8332 23.857 27.5356 24.561 27.5356 25.4284C27.5356 26.2959 26.8332 26.9999 25.9642 26.9999Z" fill="white"/>
</svg>
